<svg width="23" height="23" viewBox="0 0 23 23" fill="none" xmlns="http://www.w3.org/2000/svg">
<g clip-path="url(#clip0_2_197)">
<path d="M11.0114 19.5992L9.6854 18.3857C4.97564 14.0927 1.86627 11.2613 1.87522 7.79635C1.88251 4.97303 4.10657 2.76043 6.9299 2.76772C8.52489 2.77184 10.0538 3.51829 11.0499 4.6942C12.0521 3.52346 13.5849 2.78491 15.1799 2.78903C18.0032 2.79633 20.2158 5.02038 20.2085 7.84371C20.1995 11.3087 17.0756 14.124 12.3437 18.4018L11.0114 19.5992Z" fill="#1E1E1E"/>
<g clip-path="url(#clip1_2_197)">
<path d="M11.0335 19.5992L9.70438 18.3892C4.98355 14.1084 1.86688 11.285 1.86688 7.82005C1.86688 4.99671 4.08522 2.77838 6.90855 2.77838C8.50355 2.77838 10.0344 3.52088 11.0335 4.69421C12.0327 3.52088 13.5635 2.77838 15.1585 2.77838C17.9819 2.77838 20.2002 4.99671 20.2002 7.82005C20.2002 11.285 17.0835 14.1084 12.3627 18.3984L11.0335 19.5992Z" fill="#1E1E1E"/>
<path d="M11.0335 19.5992L9.70438 18.3892C4.98355 14.1084 1.86688 11.285 1.86688 7.82005C1.86688 4.99671 4.08522 2.77838 6.90855 2.77838C8.50355 2.77838 10.0344 3.52088 11.0335 4.69421C12.0327 3.52088 13.5635 2.77838 15.1585 2.77838C17.9819 2.77838 20.2002 4.99671 20.2002 7.82005C20.2002 11.285 17.0835 14.1084 12.3627 18.3984L11.0335 19.5992Z" fill="#1E1E1E"/>
</g>
</g>
<defs>
<clipPath id="clip0_2_197">
<rect width="22" height="22" fill="white" transform="translate(0.0620117) rotate(0.147999)"/>
</clipPath>
<clipPath id="clip1_2_197">
<rect width="22" height="22" fill="white" transform="translate(0.0335388 0.0283813)"/>
</clipPath>
</defs>
</svg>
