<svg width="25" height="25" viewBox="0 0 25 25" fill="none" xmlns="http://www.w3.org/2000/svg">
<g clip-path="url(#clip0_2_151)">
<path d="M12.0068 21.3809L10.5602 20.0572C5.42229 15.3739 2.03026 12.2851 2.04002 8.50514C2.04798 5.42515 4.47422 3.01141 7.55421 3.01936C9.29421 3.02386 10.9621 3.83817 12.0488 5.12098C13.1421 3.8438 14.8142 3.03812 16.5542 3.04261C19.6342 3.05057 22.0479 5.47681 22.04 8.5568C22.0302 12.3368 18.6222 15.408 13.4602 20.0747L12.0068 21.3809Z" fill="#E1768A"/>
<g clip-path="url(#clip1_2_151)">
<path d="M12.0309 21.3809L10.5809 20.0609C5.43091 15.3909 2.03091 12.3109 2.03091 8.53094C2.03091 5.45094 4.45091 3.03094 7.53091 3.03094C9.27091 3.03094 10.9409 3.84095 12.0309 5.12094C13.1209 3.84095 14.7909 3.03094 16.5309 3.03094C19.6109 3.03094 22.0309 5.45094 22.0309 8.53094C22.0309 12.3109 18.6309 15.3909 13.4809 20.0709L12.0309 21.3809Z" fill="#E1768A"/>
<path d="M12.0309 21.3809L10.5809 20.0609C5.43091 15.3909 2.03091 12.3109 2.03091 8.53094C2.03091 5.45094 4.45091 3.03094 7.53091 3.03094C9.27091 3.03094 10.9409 3.84095 12.0309 5.12094C13.1209 3.84095 14.7909 3.03094 16.5309 3.03094C19.6109 3.03094 22.0309 5.45094 22.0309 8.53094C22.0309 12.3109 18.6309 15.3909 13.4809 20.0709L12.0309 21.3809Z" fill="#E1768A"/>
</g>
</g>
<defs>
<clipPath id="clip0_2_151">
<rect width="24" height="24" fill="white" transform="translate(0.0619812) rotate(0.147999)"/>
</clipPath>
<clipPath id="clip1_2_151">
<rect width="24" height="24" fill="white" transform="translate(0.0309143 0.0309448)"/>
</clipPath>
</defs>
</svg>
